<svg width="12" height="12" viewBox="0 0 12 12" fill="none" xmlns="http://www.w3.org/2000/svg">
<path d="M11.4226 1.42259C11.748 1.09715 11.748 0.569515 11.4226 0.244078C11.0972 -0.0813592 10.5695 -0.0813592 10.2441 0.244078L5.83333 4.65482L1.42259 0.244078C1.09715 -0.0813592 0.569515 -0.0813592 0.244078 0.244078C-0.0813592 0.569515 -0.0813592 1.09715 0.244078 1.42259L4.65482 5.83333L0.244078 10.2441C-0.0813592 10.5695 -0.0813592 11.0972 0.244078 11.4226C0.569515 11.748 1.09715 11.748 1.42259 11.4226L5.83333 7.01184L10.2441 11.4226C10.5695 11.748 11.0972 11.748 11.4226 11.4226C11.748 11.0972 11.748 10.5695 11.4226 10.2441L7.01184 5.83333L11.4226 1.42259Z" fill="#CCCCCC"/>
</svg>
