<svg width="13" height="12" viewBox="0 0 13 12" fill="none" xmlns="http://www.w3.org/2000/svg">
<path d="M3.1983 8C3.2533 7.755 3.1533 7.405 2.9783 7.23L1.7633 6.015C1.3833 5.635 1.2333 5.23 1.3433 4.88C1.4583 4.53 1.8133 4.29 2.3433 4.2L3.9033 3.94C4.1283 3.9 4.4033 3.7 4.5083 3.495L5.3683 1.77C5.6183 1.275 5.9583 1 6.3283 1C6.6983 1 7.0383 1.275 7.2883 1.77L8.1483 3.495C8.2133 3.625 8.3483 3.75 8.4933 3.835L3.1083 9.22C3.0383 9.29 2.9183 9.225 2.9383 9.125L3.1983 8Z" fill="#FFC64B"/>
<path d="M9.67803 7.22995C9.49803 7.40995 9.39803 7.75495 9.45803 7.99995L9.80303 9.50495C9.94803 10.1299 9.85803 10.5999 9.54803 10.8249C9.42303 10.9149 9.27303 10.9599 9.09803 10.9599C8.84303 10.9599 8.54303 10.8649 8.21303 10.6699L6.74803 9.79995C6.51803 9.66495 6.13803 9.66495 5.90803 9.79995L4.44303 10.6699C3.88803 10.9949 3.41303 11.0499 3.10803 10.8249C2.99303 10.7399 2.90803 10.6249 2.85303 10.4749L8.93303 4.39495C9.16303 4.16495 9.48803 4.05995 9.80303 4.11495L10.308 4.19995C10.838 4.28995 11.193 4.52995 11.308 4.87995C11.418 5.22995 11.268 5.63495 10.888 6.01495L9.67803 7.22995Z" fill="#FFC64B"/>
</svg>
