<svg width="13" height="12" viewBox="0 0 13 12" fill="none" xmlns="http://www.w3.org/2000/svg">
<path d="M9.15818 11.335C8.89318 11.335 8.55318 11.25 8.12818 11L6.63318 10.115C6.47818 10.025 6.17818 10.025 6.02818 10.115L4.52818 11C3.64318 11.525 3.12318 11.315 2.88818 11.145C2.65818 10.975 2.29818 10.54 2.53318 9.54L2.88818 8.005C2.92818 7.845 2.84818 7.57 2.72818 7.45L1.48818 6.21C0.868184 5.59 0.918184 5.06 1.00318 4.8C1.08818 4.54 1.35818 4.08 2.21818 3.935L3.81318 3.67C3.96318 3.645 4.17818 3.485 4.24318 3.35L5.12818 1.585C5.52818 0.780004 6.05318 0.660004 6.32818 0.660004C6.60318 0.660004 7.12818 0.780004 7.52818 1.585L8.40818 3.345C8.47818 3.48 8.69318 3.64 8.84318 3.665L10.4382 3.93C11.3032 4.075 11.5732 4.535 11.6532 4.795C11.7332 5.055 11.7832 5.585 11.1682 6.205L9.92818 7.45C9.80818 7.57 9.73318 7.84 9.76818 8.005L10.1232 9.54C10.3532 10.54 9.99818 10.975 9.76818 11.145C9.64318 11.235 9.44318 11.335 9.15818 11.335ZM6.32818 9.295C6.57318 9.295 6.81818 9.355 7.01318 9.47L8.50818 10.355C8.94318 10.615 9.21818 10.615 9.32318 10.54C9.42818 10.465 9.50318 10.2 9.39318 9.71L9.03818 8.175C8.94318 7.76 9.09818 7.225 9.39818 6.92L10.6382 5.68C10.8832 5.435 10.9932 5.195 10.9432 5.03C10.8882 4.865 10.6582 4.73 10.3182 4.675L8.72318 4.41C8.33818 4.345 7.91818 4.035 7.74318 3.685L6.86318 1.925C6.70318 1.605 6.50318 1.415 6.32818 1.415C6.15318 1.415 5.95318 1.605 5.79818 1.925L4.91318 3.685C4.73818 4.035 4.31818 4.345 3.93318 4.41L2.34318 4.675C2.00318 4.73 1.77318 4.865 1.71818 5.03C1.66318 5.195 1.77818 5.44 2.02318 5.68L3.26318 6.92C3.56318 7.22 3.71818 7.76 3.62318 8.175L3.26818 9.71C3.15318 10.205 3.23318 10.465 3.33818 10.54C3.44318 10.615 3.71318 10.61 4.15318 10.355L5.64818 9.47C5.83818 9.355 6.08318 9.295 6.32818 9.295Z" fill="white"/>
</svg>
